<svg width="32" height="32" viewBox="0 0 32 32" fill="none" xmlns="http://www.w3.org/2000/svg">
  <!-- Kozy: Ankara Gown (fit-and-flare dress, knee/midi length, Ankara print pattern in gold) -->
  <!-- Narrow waist, flared hem (clearly not boxy). Bold geometric tiled pattern. Removed old chevron "face" pattern. -->
  <path d="M12 5 L10 6 L7 8 L9 11 L10 14 L6 24 L26 24 L22 14 L23 11 L25 8 L22 6 L20 5 Z" stroke="currentColor" strokeWidth="1.6" strokeLinejoin="round" fill="none"/>
  <!-- Boat neck -->
  <path d="M12 5 L20 5" stroke="currentColor" strokeWidth="1.6" strokeLinecap="round"/>
  <!-- Ankara print pattern: tiled small diamonds across the bodice (gold) -->
  <path d="M11 9 L12 10 L11 11 L10 10 Z" stroke="#D4AF37" strokeWidth="0.8" fill="none"/>
  <path d="M21 9 L22 10 L21 11 L20 10 Z" stroke="#D4AF37" strokeWidth="0.8" fill="none"/>
  <path d="M11 12 L12 13 L11 14 L10 13 Z" stroke="#D4AF37" strokeWidth="0.8" fill="none"/>
  <path d="M21 12 L22 13 L21 14 L20 13 Z" stroke="#D4AF37" strokeWidth="0.8" fill="none"/>
  <!-- Ankara print pattern: tiled small diamonds on the flared skirt -->
  <path d="M9 18 L10 19 L9 20 L8 19 Z" stroke="#D4AF37" strokeWidth="0.8" fill="none"/>
  <path d="M13 19 L14 20 L13 21 L12 20 Z" stroke="#D4AF37" strokeWidth="0.8" fill="none"/>
  <path d="M19 19 L20 20 L19 21 L18 20 Z" stroke="#D4AF37" strokeWidth="0.8" fill="none"/>
  <path d="M23 18 L24 19 L23 20 L22 19 Z" stroke="#D4AF37" strokeWidth="0.8" fill="none"/>
</svg>
