<svg width="32" height="32" viewBox="0 0 32 32" fill="none" xmlns="http://www.w3.org/2000/svg">
  <!-- Kozy: Towel (folded stack with terry-cloth fringe + hanging loop, rounded corners) -->
  <!-- Rounded rectangle stack + horizontal fold creases + looped hanging tag + fringe dashes along bottom edge. -->
  <!-- Folded stack body (rounded corners) -->
  <path d="M8 8 Q7 8 7 9 L7 25 Q7 26 8 26 L24 26 Q25 26 25 25 L25 9 Q25 8 24 8 Z" stroke="currentColor" strokeWidth="1.6" strokeLinejoin="round" fill="none"/>
  <!-- Horizontal fold creases (3 stacked folds) -->
  <line x1="7" y1="12" x2="25" y2="12" stroke="currentColor" strokeWidth="1.1" opacity="0.7"/>
  <line x1="7" y1="17" x2="25" y2="17" stroke="currentColor" strokeWidth="1.1" opacity="0.7"/>
  <line x1="7" y1="22" x2="25" y2="22" stroke="currentColor" strokeWidth="1.1" opacity="0.7"/>
  <!-- Hanging loop tag at top -->
  <path d="M13 8 L13 5 L19 5 L19 8" stroke="#D4AF37" strokeWidth="1.4" fill="none" strokeLinecap="round"/>
  <!-- Terry-cloth fringe: row of short vertical dashes along the bottom edge -->
  <line x1="10" y1="26" x2="10" y2="28" stroke="currentColor" strokeWidth="1" strokeLinecap="round"/>
  <line x1="13" y1="26" x2="13" y2="28" stroke="currentColor" strokeWidth="1" strokeLinecap="round"/>
  <line x1="16" y1="26" x2="16" y2="28" stroke="currentColor" strokeWidth="1" strokeLinecap="round"/>
  <line x1="19" y1="26" x2="19" y2="28" stroke="currentColor" strokeWidth="1" strokeLinecap="round"/>
  <line x1="22" y1="26" x2="22" y2="28" stroke="currentColor" strokeWidth="1" strokeLinecap="round"/>
</svg>
